# xmcd
#
# Track frame offsets: 
#        150
#        15072
#        32608
#        52635
#        69428
#        88934
#        106067
#        122555
#        139602
#        155327
#        174510
#        189341
#        204916
#        221889
#
# Disc length: 3234 seconds
#
# Revision: 0
# Processed by: cddbd v1.5.2PL0 Copyright (c) Steve Scherf et al.
# Submitted via: ExactAudioCopyFreeDBPlugin 1.0
#
DISCID=a80ca00e
DTITLE=楊千嬅 - Miriam (正東 10x10十大唱片) (首批限量豪華版 CD+DVD)
DYEAR=2006
DGENRE=Pop
TTITLE0=熱血青年
TTITLE1=照相本子
TTITLE2=姊妹
TTITLE3=野孩子
TTITLE4=罐頭湯
TTITLE5=紫色
TTITLE6=深紫色
TTITLE7=悲歌之王
TTITLE8=假如讓我說下去
TTITLE9=河童
TTITLE10=亂唱的歌
TTITLE11=熱血青年 (Live2002)
TTITLE12=野孩子 (Live2002)
TTITLE13=假如讓我說下去 (Live2002)
EXTD=
EXTT0=
EXTT1=
EXTT2=
EXTT3=
EXTT4=
EXTT5=
EXTT6=
EXTT7=
EXTT8=
EXTT9=
EXTT10=
EXTT11=
EXTT12=
EXTT13=
PLAYORDER=
